<svg width="38" height="38" viewBox="0 0 38 38" fill="none" xmlns="http://www.w3.org/2000/svg">
<g id="Button Copy">
<path id="Circle" d="M36.5864 19.1255C36.5864 28.9026 28.6605 36.8285 18.8834 36.8285C9.10632 36.8285 1.18042 28.9026 1.18042 19.1255C1.18042 9.34838 9.10632 1.42249 18.8834 1.42249C28.6605 1.42249 36.5864 9.34838 36.5864 19.1255Z" fill="#0381FF"/>
<path id="Circle (Stroke)" fill-rule="evenodd" clip-rule="evenodd" d="M37.7664 19.1259C37.7664 29.5548 29.3121 38.0091 18.8832 38.0091C8.45429 38.0091 0 29.5548 0 19.1259C0 8.69703 8.45429 0.242737 18.8832 0.242737C29.3121 0.242737 37.7664 8.69703 37.7664 19.1259ZM18.8832 36.8289C28.6603 36.8289 36.5862 28.903 36.5862 19.1259C36.5862 9.34883 28.6603 1.42294 18.8832 1.42294C9.1061 1.42294 1.1802 9.34883 1.1802 19.1259C1.1802 28.903 9.1061 36.8289 18.8832 36.8289Z" fill="white"/>
<g id="Cross 1">
<path id="Path" fill-rule="evenodd" clip-rule="evenodd" d="M25.2015 13.642C25.4319 13.4115 25.4319 13.0379 25.2015 12.8075C24.971 12.577 24.5974 12.577 24.3669 12.8075L18.8832 18.2912L13.3995 12.8075C13.169 12.577 12.7954 12.577 12.5649 12.8075C12.3345 13.0379 12.3345 13.4115 12.5649 13.642L18.0487 19.1257L12.5649 24.6094C12.3345 24.8399 12.3345 25.2135 12.5649 25.444C12.7954 25.6744 13.169 25.6744 13.3995 25.444L18.8832 19.9602L24.3669 25.444C24.5974 25.6744 24.971 25.6744 25.2015 25.444C25.4319 25.2135 25.4319 24.8399 25.2015 24.6094L19.7177 19.1257L25.2015 13.642Z" fill="white"/>
</g>
</g>
</svg>
