<svg width="39" height="39" viewBox="0 0 39 39" fill="none" xmlns="http://www.w3.org/2000/svg">
<g id="Button">
<path id="Circle" d="M37.1912 19.5035C37.1912 29.2805 29.2654 37.2064 19.4883 37.2064C9.71117 37.2064 1.78528 29.2805 1.78528 19.5035C1.78528 9.72637 9.71117 1.80048 19.4883 1.80048C29.2654 1.80048 37.1912 9.72637 37.1912 19.5035Z" fill="#0381FF"/>
<path id="Circle (Stroke)" fill-rule="evenodd" clip-rule="evenodd" d="M38.3712 19.5037C38.3712 29.9326 29.9169 38.3869 19.488 38.3869C9.05915 38.3869 0.604858 29.9326 0.604858 19.5037C0.604858 9.07483 9.05915 0.620544 19.488 0.620544C29.9169 0.620544 38.3712 9.07483 38.3712 19.5037ZM19.488 37.2067C29.2651 37.2067 37.191 29.2808 37.191 19.5037C37.191 9.72664 29.2651 1.80074 19.488 1.80074C9.71095 1.80074 1.78506 9.72664 1.78506 19.5037C1.78506 29.2808 9.71095 37.2067 19.488 37.2067Z" fill="white"/>
<path id="Arrow (Stroke)" fill-rule="evenodd" clip-rule="evenodd" d="M10.6368 11.2424C10.6368 10.9164 10.901 10.6523 11.2269 10.6523H17.1279C17.4538 10.6523 17.718 10.9164 17.718 11.2424C17.718 11.5683 17.4538 11.8325 17.1279 11.8325H11.817V17.1433C11.817 17.4693 11.5528 17.7334 11.2269 17.7334C10.901 17.7334 10.6368 17.4693 10.6368 17.1433V11.2424Z" fill="white"/>
<path id="Arrow (Stroke)_2" fill-rule="evenodd" clip-rule="evenodd" d="M27.1589 27.7652C27.1589 28.0911 26.8947 28.3553 26.5688 28.3553H20.6678C20.3419 28.3553 20.0777 28.0911 20.0777 27.7652C20.0777 27.4393 20.3419 27.1751 20.6678 27.1751H25.9787V21.8642C25.9787 21.5383 26.2429 21.2741 26.5688 21.2741C26.8947 21.2741 27.1589 21.5383 27.1589 21.8642V27.7652Z" fill="white"/>
<path id="Line (Stroke)" fill-rule="evenodd" clip-rule="evenodd" d="M10.8254 10.8099C11.0642 10.5882 11.4376 10.602 11.6594 10.8408L27.002 27.3636C27.2237 27.6024 27.2099 27.9758 26.9711 28.1976C26.7322 28.4193 26.3589 28.4055 26.1371 28.1667L10.7945 11.6439C10.5728 11.4051 10.5866 11.0317 10.8254 10.8099Z" fill="white"/>
</g>
</svg>
